<svg width="38px" height="20px" viewBox="0 0 38 20" version="1.1" xmlns="http://www.w3.org/2000/svg" xmlns:xlink="http://www.w3.org/1999/xlink">
    <g stroke="none" stroke-width="1" fill="none" fill-rule="evenodd">
        <g id="icon-arrow-right" transform="translate(19.000000, 10.000000) rotate(90.000000) translate(-19.000000, -10.000000) translate(9.000000, -9.000000)" fill="#726D75" fill-rule="nonzero">
            <path d="M15.9322,18.648649 L0.4661,2.542998 C0.15537,2.260439 0,1.914314 0,1.504608 C0,1.094902 0.15537,0.734646 0.4661,0.423833 C0.74859,0.141274 1.09463,0 1.50424,0 C1.91384,0 2.25989,0.141274 2.54237,0.423833 L19.5339,17.589069 C19.84463,17.871623 20,18.224816 20,18.648649 C20,19.072482 19.84463,19.425675 19.5339,19.708228 L2.54237,36.873464 C2.25989,37.156021 1.91384,37.297297 1.50424,37.297297 C1.09463,37.297297 0.74859,37.156021 0.4661,36.873464 C0.15537,36.590908 0,36.237717 0,35.813882 C0,35.390047 0.15537,35.036856 0.4661,34.7543 L15.9322,18.648649 Z"></path>
        </g>
    </g>
</svg>
